<?xml version="1.0" encoding="UTF-8"?> <!-- Generator: Adobe Illustrator 25.2.1, SVG Export Plug-In . SVG Version: 6.00 Build 0) --> <svg xmlns="http://www.w3.org/2000/svg" xmlns:xlink="http://www.w3.org/1999/xlink" version="1.1" id="Layer_1" x="0px" y="0px" width="100px" height="100px" viewBox="0 0 100 100" style="enable-background:new 0 0 100 100;" xml:space="preserve"> <style type="text/css"> .st0{fill-rule:evenodd;clip-rule:evenodd;} </style> <path class="st0" d="M1.9,93.14V22.51l17.23,17.23v44.79h8.61V48.35l17.23,17.23v18.95h8.61V63.85l7.75-7.75l11.2,11.2v17.23h27.57 v8.62H1.9z M85.77,66.12L60.51,41.84L48.53,53.42l-0.1,0.11l0,0l-0.01,0l-0.15-0.16L0.03,7h14.61L48.4,39.46l11.82-11.44l0.26-0.27 l0.01,0.01l0.02-0.02l7.3,7.02l-0.02,0.02l25.14,24.17l7.17-7.17v20.67H79.43L85.77,66.12z"></path> </svg> 