<?xml version="1.0" encoding="UTF-8"?> <!-- Generator: Adobe Illustrator 25.2.1, SVG Export Plug-In . SVG Version: 6.00 Build 0) --> <svg xmlns="http://www.w3.org/2000/svg" xmlns:xlink="http://www.w3.org/1999/xlink" version="1.1" id="Layer_1" x="0px" y="0px" width="100px" height="100px" viewBox="0 0 100 100" style="enable-background:new 0 0 100 100;" xml:space="preserve"> <style type="text/css"> .st0{fill-rule:evenodd;clip-rule:evenodd;} </style> <path class="st0" d="M95.29,65.76c-2.35,2.45-10.53,2.24-11.81,1.97c-13.73-2.92-15.74-11.82-15.74-11.82s-0.32-1.97-1.97-1.97 c-1.65,0-1.97,1.97-1.97,1.97s0,9.36,0,13.79c0,3.63-6.17,5.28-9.83,5.75v0.16c0,0-0.83,0-1.98,0c-1.16,0-2.64,0-3.93,0 c-1.15,0-1.97,0-1.97,0v-0.16c-3.66-0.48-9.85-2.12-9.85-5.75c0-4.44,0-13.79,0-13.79s-0.32-1.97-1.97-1.97s-1.97,1.97-1.97,1.97 s-2.02,8.9-15.76,11.82C15.26,68,7.07,68.21,4.71,65.76c0,0-0.51-1.97,1.97-1.97c2.48,0,2.64,0,3.94,0c1.3,0,12.56-2.26,15.76-13.79 c0.58-2.08-0.14-7.16,3.94-15.76c0.62-1.31,3.91-3.94,7.88-3.94s4.57,0,5.91,0c1.34,0,3.84,1.97,5.91,1.97 c2.07,0,4.56-1.97,5.9-1.97c1.34,0,1.94,0,5.9,0c3.97,0,7.25,2.63,7.87,3.94c4.08,8.6,3.36,13.68,3.94,15.76 c3.2,11.53,14.44,13.79,15.74,13.79c1.3,0,1.46,0,3.94,0C95.8,63.79,95.29,65.76,95.29,65.76z M50.03,24.38 c-6.53,0-11.82-5.29-11.82-11.82c0-6.53,5.29-11.82,11.82-11.82s11.82,5.29,11.82,11.82C61.85,19.09,56.56,24.38,50.03,24.38z M16.53,73.65c2.66-1.74,7.7-1.77,13.79,1.97c5.34,3.27,9.19,6.86,17.73,7.7v-0.29c11.5,0,15.68-4.27,21.81-8.12 c6.13-3.85,11.21-3.83,13.88-2.03c5.85,3.93,4.07,8.27,0,12.17c-2.04,1.95-7.36,4.99-12.74,7.55c2.81,3.24,4.77,2.6,6.79,2.6 c2.29,0,2.79,4.06,1.98,4.06c-0.81,0-4.22,0-9.91,0c-3.34,0-6.82-1.39-9.16-2.54c-1.13,0.32-2.08,0.51-2.74,0.51 c-1.99,0-4.16,0-5.97,0v0.06c0,0-5.43,0-9.85,0c-0.65,0-1.6-0.19-2.72-0.5c-2.32,1.12-5.78,2.47-9.1,2.47c-5.66,0-9.05,0-9.85,0 c-0.81,0-0.3-3.94,1.97-3.94c2.01,0,3.95,0.62,6.75-2.52c-5.34-2.48-10.63-5.43-12.66-7.33C12.49,81.68,10.72,77.46,16.53,73.65z"></path> </svg> 