<?xml version="1.0" encoding="UTF-8"?> <svg xmlns="http://www.w3.org/2000/svg" id="Layer_1" data-name="Layer 1" viewBox="0 0 100 28"><title>kailo-logo-01</title><path d="M12.48,7.37,0,19.85v6.88L19.37,7.37ZM0,7.37V16L8.58,7.37ZM3.9,26.73H19.37L11.63,19ZM97,9.3a1.51,1.51,0,1,1,1.51,1.5A1.48,1.48,0,0,1,97,9.3Zm2.61,0a1.1,1.1,0,1,0-1.1,1.12A1.08,1.08,0,0,0,99.59,9.3ZM97.9,10V8.6h.72a.46.46,0,0,1,.51.44.4.4,0,0,1-.29.41l.36.52h-.44l-.3-.47h-.19V10Zm.37-.74h.27c.13,0,.2-.06.2-.17s-.07-.17-.2-.17h-.27ZM63.52,26.73h4.11V7.51H63.52Zm7.62,0h4.11V1.28H71.14ZM63.52,5.38h4.11V1.28H63.52Zm-22.36,2h-5L30.82,15H28.05V1.28H24V26.73h4.1V19.12h2.77l5.33,7.61h5l-6.77-9.66Zm46.47-.19a10,10,0,1,0,10,10A10,10,0,0,0,87.63,7.21Zm0,15.83a5.88,5.88,0,1,1,5.87-5.87A5.89,5.89,0,0,1,87.63,23ZM56.09,9.31a10,10,0,1,0,0,15.71l.3,1.71h3.68V7.51H56.41Zm-5.9,14a6.11,6.11,0,1,1,6.11-6.1A6.11,6.11,0,0,1,50.19,23.27Z"></path></svg> 